<?xml version="1.0" encoding="utf-8"?>
<?xml-stylesheet type="text/xsl" href="rss1.xsl"?>
<rss version="2.0" xmlns:atom="http://www.w3.org/2005/Atom" xmlns:content="http://purl.org/rss/1.0/modules/content/" xmlns:dc="http://purl.org/dc/elements/1.1/" xmlns:media="http://search.yahoo.com/mrss/">
<channel>
 <title>Getty</title>
 <link>http://www.gettyimg.com/</link>
 <atom:link href="http://www.gettyimg.com/" rel="self" type="application/rss+xml" />

 
                <item>
                <title><![CDATA[【HD Live Performances】Rihanna Live at Made in America 2016 1080p AMZN WEB-DL DDP2.0 H.264-SiGLA]]></title>
                <link><![CDATA[https://sharemania.us/threads/rihanna-live-at-made-in-america-2016-1080p-amzn-web-dl-ddp2-0-h-264-sigla.243359/]]></link>
                <description><![CDATA[<article>
<blockquote class="messageText SelectQuoteContainer ugc baseHtml">
<div style="text-align: center"><br>
<img src="https://i.ibb.co/FHJ0Tt3/j1-Toa-EGIDH1n-KVdk-Fca-SG6-EYvrv.jpg" class="bbCodeImage LbImage" alt="[​IMG]" data-url="https://i.ibb.co/FHJ0Tt3/j1-Toa-EGIDH1n-KVdk-Fca-SG6-EYvrv.jpg" style=""><br>
<img src="https://i.ibb.co/8D9x1T4/Rihanna-Live-at-Made-in-America-2016-1080p-AMZN-WEB-DL-DDP2-0-H-264-Si-GLA-mkv-thumbs.jpg" class="bbCodeImage LbImage" alt="[​IMG]" data-url="https://i.ibb.co/8D9x1T4/Rihanna-Live-at-Made-in-America-2016-1080p-AMZN-WEB-DL-DDP2-0-H-264-Si-GLA-mkv-thumbs.jpg" style=""><br>
<br>
<span data-s9e-mediaembed="youtube" style="display:inline-block;width:100%;max-width:640px"><span style="display:block;overflow:hidden;position:relative;padding-bottom:56.25%"><iframe allowfullscreen="" loading="lazy" scrolling="no" style="background:url(https://i.ytimg.com/vi/-Y-WZujiFzo/hqdefault.jpg) 50% 50% / cover;border:0;height:100%;left:0;position:absolute;width:100%" src="https://www.youtube.com/embed/-Y-WZujiFzo"></iframe></span></span>​</div><br>
<br>
01 Stay<br>
02 Love the Way You Lie (Part II)<br>
03 Woo<br>
04 Sex with Me<br>
05 Birthday Cake<br>
06 Pour It Up<br>
07 Numb<br>
08 Bitch Better Have My Money<br>
09 Goodnight Gotham<br>
10 Consideration<br>
11 Live Your Life / Run This Town / All of the Lights<br>
12 Umbrella<br>
13 Desperado<br>
14 Man Down<br>
15 Rude Boy<br>
16 Work<br>
17 Take Care<br>
18 We Found Love / How Deep Is Your Love<br>
19 Where Have You Been<br>
20 Needed Me<br>
21 Same Ol' Mistakes<br>
22 Diamonds<br>
23 FourFiveSeconds<br>
24 Love on the Brain<br>
25 Kiss It Better<br>
<br>
<div style="text-align: left">
<div class="bbCodeBlock bbCodeCode">
<div class="type">Code:</div>
<pre>General
Unique ID                      : 250979546490151427532390846920694850350 (0xBCD0E703C7648B7A488956CED542632E)
Complete name                  : C:\SiGLA\medusa\output\amazon\Rihanna.Live.at.Made.in.America.2016.1080p.AMZN.WEB-DL.DDP2.0.H.264-SiGLA.mkv
Format                         : Matroska
Format version                 : Version 4
File size                      : 4.95 GiB
Duration                       : 1 h 29 min
Overall bit rate               : 7 950 kb/s
Frame rate                     : 25.000 FPS
Movie name                     : Rihanna.Live.at.Made.in.America.2016.1080p.AMZN.WEB-DL.DDP2.0.H.264-SiGLA
Writing application            : mkvmerge v62.0.0 ('SiGLA') 64-bit
Writing library                : libebml v1.4.2 + libmatroska v1.6.4

Video
ID                             : 1
Format                         : AVC
Format/Info                    : Advanced Video Codec
Format profile                 : High@L4
Format settings                : CABAC / 4 Ref Frames
Format settings, CABAC         : Yes
Format settings, Reference fra : 4 frames
Codec ID                       : V_MPEG4/ISO/AVC
Duration                       : 1 h 29 min
Bit rate mode                  : Constant
Bit rate                       : 7 724 kb/s
Nominal bit rate               : 10 000 kb/s
Width                          : 1 920 pixels
Height                         : 1 080 pixels
Display aspect ratio           : 16:9
Frame rate mode                : Constant
Frame rate                     : 25.000 FPS
Color space                    : YUV
Chroma subsampling             : 4:2:0
Bit depth                      : 8 bits
Scan type                      : Progressive
Bits/(Pixel*Frame)             : 0.149
Stream size                    : 4.81 GiB (97%)
Default                        : Yes
Forced                         : No
Color range                    : Limited
Color primaries                : BT.709
Transfer characteristics       : BT.709
Matrix coefficients            : BT.709

Audio
ID                             : 2
Format                         : E-AC-3
Format/Info                    : Enhanced AC-3
Commercial name                : Dolby Digital Plus
Codec ID                       : A_EAC3
Duration                       : 1 h 29 min
Bit rate mode                  : Constant
Bit rate                       : 224 kb/s
Channel(s)                     : 2 channels
Channel layout                 : L R
Sampling rate                  : 48.0 kHz
Frame rate                     : 31.250 FPS (1536 SPF)
Compression mode               : Lossy
Stream size                    : 143 MiB (3%)
Title                          : English
Language                       : English
Service kind                   : Complete Main
Default                        : Yes
Forced                         : No

Text
ID                             : 3
Format                         : UTF-8
Codec ID                       : S_TEXT/UTF8
Codec ID/Info                  : UTF-8 Plain Text
Duration                       : 1 h 28 min
Bit rate                       : 59 b/s
Frame rate                     : 0.228 FPS
Count of elements              : 1210
Stream size                    : 38.7 KiB (0%)
Title                          : English
Language                       : English
Default                        : No
Forced                         : No
</pre>
</div></div><br>
<div class="bbCodeBlock bbCodeVfcHH HiddenContent">
<div class="attribution type">Hidden Content:</div>
<blockquote>You must either reply or click 'Like' to see the hidden information contained here.</blockquote>
</div>
<div class="messageTextEndMarker">&nbsp;</div>
</blockquote>
</article>]]></description>
                <author><![CDATA[-C.A.A]]></author>
                </item>

                
                <item>
                <title><![CDATA[【Albums (lossy)】iTunes Plus - Michael Jackson - Immortal (iTunes Plus + ITunes LP)]]></title>
                <link><![CDATA[https://sharemania.us/threads/michael-jackson-immortal-itunes-plus-itunes-lp.243358/]]></link>
                <description><![CDATA[<article>
<blockquote class="messageText SelectQuoteContainer ugc baseHtml">
<div style="text-align: center"><img src="https://images2.imgbox.com/69/98/DVDgZVZt_o.jpg" class="bbCodeImage LbImage" alt="[​IMG]" data-url="https://images2.imgbox.com/69/98/DVDgZVZt_o.jpg" style="">​</div><ul>
<li><b>Genres: Pop</b></li>
<li><b>Published by:</b> <a href="https://sharemania.us/members/109650/" class="username" data-user="109650, @sebastianswif13">@sebastianswif13</a></li>
<li><b>Released: 2011</b></li>
<li>Bit Rate: 256 kbps</li>
<li><b>Purchase date: 21/11/2011 01:10 </b></li>
<li><b>Purchased by: Jorge</b></li>
<li>℗ 2011 MJJ Productions<br>
</li>
<li><b>Filename: MJ_IMMT.rar</b></li>
<li><b>Size: 212 MB (223.025.710 bytes)</b></li>
<li><b>Request by: </b></li>
</ul><div style="text-align: center"><b><span style="color: #ff0000"><b>PASSWORD: sharemania.us</b></span></b><br>
<span style="color: #ff0000">Note about iTunes LP, Unfortunately they only work on older versions of iTunes</span><br>
<br>
<b><b>Download Tracks + iTunes LP:<br>
<div class="bbCodeBlock bbCodeVfcHH HiddenContent">
<div class="attribution type">Hidden Content:</div>
<blockquote>You must either reply or click 'Like' to see the hidden information contained here.</blockquote>
</div>
<div class="bbCodeBlock bbCodeVfcHH HiddenContent">
<div class="attribution type">Hidden Content:</div>
<blockquote>You must reply before you can see the hidden data contained here.</blockquote>
</div>iTunes LP Screenshots:<br>
<img src="https://images2.imgbox.com/87/6e/wejuaJKP_o.png" class="bbCodeImage LbImage" alt="[​IMG]" data-url="https://images2.imgbox.com/87/6e/wejuaJKP_o.png" style=""> <br>
<img src="https://images2.imgbox.com/e4/b8/TA3kn8l3_o.png" class="bbCodeImage LbImage" alt="[​IMG]" data-url="https://images2.imgbox.com/e4/b8/TA3kn8l3_o.png" style=""> <br>
<img src="https://images2.imgbox.com/22/00/NGUIyUdK_o.png" class="bbCodeImage LbImage" alt="[​IMG]" data-url="https://images2.imgbox.com/22/00/NGUIyUdK_o.png" style=""> <br>
<img src="https://images2.imgbox.com/64/d0/pEtEM4zU_o.png" class="bbCodeImage LbImage" alt="[​IMG]" data-url="https://images2.imgbox.com/64/d0/pEtEM4zU_o.png" style=""> <br>
<img src="https://images2.imgbox.com/37/a4/aomg1R3H_o.png" class="bbCodeImage LbImage" alt="[​IMG]" data-url="https://images2.imgbox.com/37/a4/aomg1R3H_o.png" style=""> <br>
<br>
<b><b>If any link is down, please inform me by means of the replys; Thank you - Sebastian Swift<br>
Please do not type random letters when making a reply<br>
<br>
You can place an order in my profile, if I have it in my personal collection I can post it!</b></b></b></b>​</div>
<div class="messageTextEndMarker">&nbsp;</div>
</blockquote>
</article>]]></description>
                <author><![CDATA[sebastianswif13]]></author>
                </item>

                </channel></rss>